<?xml version="1.0" standalone="no"?>
<!DOCTYPE svg PUBLIC "-//W3C//DTD SVG 20010904//EN"
 "http://www.w3.org/TR/2001/REC-SVG-20010904/DTD/svg10.dtd">
<svg version="1.0" xmlns="http://www.w3.org/2000/svg"
 width="512.000000pt" height="512.000000pt" viewBox="0 0 512.000000 512.000000"
 preserveAspectRatio="xMidYMid meet">
<metadata>
Created by potrace 1.14, written by Peter Selinger 2001-2017
</metadata>
<g transform="translate(0.000000,512.000000) scale(0.100000,-0.100000)"
fill="#000000" stroke="none">
<path d="M961 4715 c-313 -56 -599 -281 -736 -578 -102 -221 -117 -496 -41
-730 97 -294 335 -540 623 -642 l52 -18 -39 -71 c-21 -39 -47 -93 -58 -121
-11 -27 -29 -72 -40 -100 -11 -27 -34 -107 -52 -176 -25 -101 -31 -149 -32
-240 -2 -109 7 -233 18 -251 9 -14 -8 -10 -203 46 -103 29 -199 56 -212 59
-16 4 -30 -1 -47 -18 -27 -27 -29 -42 -11 -66 10 -13 381 -303 642 -501 33
-25 84 -74 114 -109 277 -326 697 -554 1183 -643 l122 -22 13 -60 c7 -32 21
-65 30 -72 12 -9 84 -12 273 -12 269 0 286 3 294 45 2 11 9 38 15 61 l11 40
82 14 c456 73 891 292 1158 583 87 96 143 151 175 174 31 23 37 28 142 110 34
26 74 57 89 68 15 11 62 47 104 80 42 33 91 71 110 85 194 146 220 173 200
210 -20 37 -39 39 -129 13 -47 -13 -95 -26 -106 -28 -20 -5 -136 -39 -189 -56
-36 -11 -59 -12 -52 0 20 32 25 327 6 401 -6 25 -13 57 -16 72 -3 14 -14 57
-25 95 -11 37 -22 73 -23 78 -2 6 -7 19 -11 30 -4 11 -18 46 -30 77 -13 31
-41 91 -63 132 l-40 76 27 6 c55 13 212 96 287 152 403 300 526 852 287 1292
-122 225 -325 395 -569 478 -109 37 -138 42 -284 49 -363 17 -535 -174 -565
-627 -2 -30 -4 -166 -4 -303 l-1 -247 -49 24 c-145 74 -417 163 -551 181 -229
30 -468 23 -650 -20 -14 -3 -36 -8 -50 -11 -96 -19 -257 -77 -384 -140 -38
-19 -70 -33 -71 -32 -2 2 -5 147 -8 323 -3 176 -11 343 -17 370 -6 28 -13 64
-15 80 -9 51 -38 128 -72 185 -62 108 -143 168 -278 207 -42 12 -262 11 -334
-2z"/>
</g>
</svg>
